<svg xmlns="http://www.w3.org/2000/svg" viewBox="0 0 122.88 122.88"><path d="M17.89 0h88.9c8.85 0 16.1 7.24 16.1 16.1v90.68c0 8.85-7.24 16.1-16.1 16.1H16.1c-8.85 0-16.1-7.24-16.1-16.1v-88.9C0 8.05 8.05 0 17.89 0zm17.75 31.06h31.23c6.8 0 11.89 1.61 15.29 4.85 3.38 3.24 5.08 7.85 5.08 13.83 0 6.14-1.85 10.95-5.54 14.4-3.69 3.47-9.33 5.19-16.92 5.19h-10.3v22.49H35.64V31.06zm18.84 25.97h4.62c3.65 0 6.21-.64 7.68-1.9 1.47-1.26 2.21-2.87 2.21-4.84 0-1.91-.64-3.52-1.92-4.85-1.27-1.33-3.68-1.99-7.21-1.99h-5.37v13.58h-.01z" fill-rule="evenodd" clip-rule="evenodd"/></svg>