<svg xmlns="http://www.w3.org/2000/svg" xmlns:xlink="http://www.w3.org/1999/xlink" version="1.1" width="256" height="256" viewBox="0 0 256 256" xml:space="preserve">

<defs>
</defs>
<g style="stroke: none; stroke-width: 0; stroke-dasharray: none; stroke-linecap: butt; stroke-linejoin: miter; stroke-miterlimit: 10; fill: none; fill-rule: nonzero; opacity: 1;" transform="translate(1.4038166264531924 1.4038166264531355) scale(2.81 2.81)" >
	<path d="M 28.513 25.461 L 12.135 38.394 c -1.204 0.951 -2.951 0.745 -3.902 -0.459 l -7.634 -9.669 c -0.951 -1.204 -0.745 -2.951 0.459 -3.902 l 16.379 -12.932 c 1.204 -0.951 2.951 -0.745 3.902 0.459 l 7.634 9.669 C 29.923 22.763 29.718 24.511 28.513 25.461 z" style="stroke: none; stroke-width: 1; stroke-dasharray: none; stroke-linecap: butt; stroke-linejoin: miter; stroke-miterlimit: 10; fill: rgb(229,57,61); fill-rule: nonzero; opacity: 1;" transform=" matrix(1 0 0 1 0 0) " stroke-linecap="round" />
	<path d="M 61.676 25.512 l 16.379 12.932 c 1.204 0.951 2.951 0.745 3.902 -0.459 l 7.634 -9.669 c 0.951 -1.204 0.745 -2.951 -0.459 -3.902 L 72.753 11.482 c -1.204 -0.951 -2.951 -0.745 -3.902 0.459 l -7.634 9.669 C 60.266 22.814 60.471 24.561 61.676 25.512 z" style="stroke: none; stroke-width: 1; stroke-dasharray: none; stroke-linecap: butt; stroke-linejoin: miter; stroke-miterlimit: 10; fill: rgb(229,57,61); fill-rule: nonzero; opacity: 1;" transform=" matrix(1 0 0 1 0 0) " stroke-linecap="round" />
	<path d="M 71.249 10.802 c -4.203 -1.235 -8.407 -2.166 -12.61 -2.805 c 0 0.016 0.004 0.031 0.004 0.047 c 0 4.977 -5.897 9.012 -13.171 9.012 s -13.171 -4.035 -13.171 -9.012 c 0 -0.054 0.01 -0.106 0.012 -0.159 c -4.451 0.64 -8.901 1.609 -13.352 2.918 c -1.531 0.531 -2.844 1.165 -2.473 2.727 c 4.665 12.88 5.755 39.083 6.509 66.535 c 0.125 1.273 1.194 2.243 2.473 2.243 h 19.636 H 64.74 c 1.279 0 2.348 -0.97 2.473 -2.243 c 0.754 -27.452 1.844 -53.655 6.509 -66.535 C 73.865 12.067 72.642 11.232 71.249 10.802 z" style="stroke: none; stroke-width: 1; stroke-dasharray: none; stroke-linecap: butt; stroke-linejoin: miter; stroke-miterlimit: 10; fill: rgb(247,62,66); fill-rule: nonzero; opacity: 1;" transform=" matrix(1 0 0 1 0 0) " stroke-linecap="round" />
	<path d="M 45.471 19.169 c -7.993 0 -14.429 -6.402 -14.429 -11.703 h 2 c 0 4.368 5.735 9.703 12.429 9.703 c 6.711 0 12.171 -3.594 12.171 -8.012 h 2 C 59.642 14.678 53.285 19.169 45.471 19.169 z" style="stroke: none; stroke-width: 1; stroke-dasharray: none; stroke-linecap: butt; stroke-linejoin: miter; stroke-miterlimit: 10; fill: rgb(229,57,61); fill-rule: nonzero; opacity: 1;" transform=" matrix(1 0 0 1 0 0) " stroke-linecap="round" />
	<path d="M 61.676 25.512 l 16.379 12.932 c 1.204 0.951 2.951 0.745 3.902 -0.459 l 7.634 -9.669 c 0.951 -1.204 0.745 -2.951 -0.459 -3.902 L 72.753 11.482 c -1.204 -0.951 -2.951 -0.745 -3.902 0.459 l -7.634 9.669 C 60.266 22.814 60.471 24.561 61.676 25.512 z" style="stroke: none; stroke-width: 1; stroke-dasharray: none; stroke-linecap: butt; stroke-linejoin: miter; stroke-miterlimit: 10; fill: rgb(116,158,41); fill-rule: nonzero; opacity: 1;" transform=" matrix(1 0 0 1 0 0) " stroke-linecap="round" />
	<path d="M 45.104 82.306 H 64.74 c 1.279 0 2.348 -0.97 2.473 -2.243 c 0.754 -27.452 1.844 -53.655 6.509 -66.535 c 0.143 -1.461 -1.079 -2.296 -2.473 -2.727 c -4.203 -1.235 -8.407 -2.166 -12.61 -2.805 c 0 0.016 0.004 0.031 0.004 0.047 c 0 4.977 -5.897 9.012 -13.171 9.012" style="stroke: none; stroke-width: 1; stroke-dasharray: none; stroke-linecap: butt; stroke-linejoin: miter; stroke-miterlimit: 10; fill: rgb(134,181,51); fill-rule: nonzero; opacity: 1;" transform=" matrix(1 0 0 1 0 0) " stroke-linecap="round" />
	<path d="M 45.471 19.169 v -2 c 6.742 0 12.171 -5.308 12.171 -9.703 h 2 C 59.642 12.878 53.452 19.169 45.471 19.169 z" style="stroke: none; stroke-width: 1; stroke-dasharray: none; stroke-linecap: butt; stroke-linejoin: miter; stroke-miterlimit: 10; fill: rgb(116,158,41); fill-rule: nonzero; opacity: 1;" transform=" matrix(1 0 0 1 0 0) " stroke-linecap="round" />
	<path d="M 57.455 37.493 l -8.192 -4.73 c -0.469 -0.271 -1.056 0.068 -1.056 0.61 v 1.83 H 37.454 h -4.366 c -0.396 0 -0.717 0.321 -0.717 0.717 v 4.366 v 5.651 c 0 0.396 0.321 0.717 0.717 0.717 h 4.366 c 0.396 0 0.717 -0.321 0.717 -0.717 v -4.934 h 10.035 v 1.83 c 0 0.542 0.587 0.881 1.056 0.61 l 8.192 -4.73 C 57.924 38.442 57.924 37.764 57.455 37.493 z" style="stroke: none; stroke-width: 1; stroke-dasharray: none; stroke-linecap: butt; stroke-linejoin: miter; stroke-miterlimit: 10; fill: rgb(255,255,255); fill-rule: nonzero; opacity: 1;" transform=" matrix(1 0 0 1 0 0) " stroke-linecap="round" />
	<path d="M 32.723 57.829 l 8.192 4.73 c 0.469 0.271 1.056 -0.068 1.056 -0.61 v -1.83 h 10.752 h 4.366 c 0.396 0 0.717 -0.321 0.717 -0.717 v -4.366 v -5.651 c 0 -0.396 -0.321 -0.717 -0.717 -0.717 h -4.366 c -0.396 0 -0.717 0.321 -0.717 0.717 v 4.934 H 41.971 v -1.83 c 0 -0.542 -0.587 -0.881 -1.056 -0.61 l -8.192 4.73 C 32.254 56.881 32.254 57.558 32.723 57.829 z" style="stroke: none; stroke-width: 1; stroke-dasharray: none; stroke-linecap: butt; stroke-linejoin: miter; stroke-miterlimit: 10; fill: rgb(255,255,255); fill-rule: nonzero; opacity: 1;" transform=" matrix(1 0 0 1 0 0) " stroke-linecap="round" />
</g>
</svg>