<?xml version="1.0" encoding="UTF-8" standalone="no"?><svg height="79.375mm" viewBox="0 0 120.96611 79.375" width="120.96611mm" xmlns="http://www.w3.org/2000/svg"><g fill="#042d4f" stroke-width="1.074449"><path d="m.00000079.00000429v3.46467871 69.507335h37.24751221v5.864406c0 .298289.239731.538579.538019.538579h49.415527c.298289 0 .538579-.24029.538579-.538579v-5.864406h33.226472v-72.97201371zm6.93158141 6.92935731h107.1029578v59.1110744h-107.1029578z"/><path d="m80.720338 19.085171v33.813917h8.327989v-11.528374h2.013292l7.441837 11.88262 9.135334-1.464721-8.343003-12.369013c3.317273-1.712026 6.336373-4.617293 6.336373-8.977063 0-8.488028-5.48859-11.357366-12.404001-11.357366zm11.328495 6.495689c1.015204.02278 5.184173.28345 5.184173 4.720903 0 5.071377-5.412375 4.720902-5.412375 4.720902h-2.772304v-9.441247z"/><path d="m55.748556 19.116814-12.379006 34.13652h8.435155l2.170419-6.952125h11.63222l2.318113 7.274159 8.7422-1.401414-11.869298-33.05714zm3.983272 8.747207 3.770617 11.832648h-7.465164z"/><path d="m23.623114 19.116814-9.279682 1.487478 11.838213 32.971076h9.049804l12.379005-34.13652h-9.003721l-7.364111 23.58757z"/></g></svg>